<mxfile host="app.diagrams.net" modified="2021-02-25T03:44:28.374Z" agent="5.0 (Windows NT 10.0; Win64; x64) AppleWebKit/537.36 (KHTML, like Gecko) Chrome/87.0.4280.88 Safari/537.36" etag="n-aK-zcdLIym-5vasgEu" version="14.2.7" type="github">
  <diagram id="C5RBs43oDa-KdzZeNtuy" name="Page-1">
    <mxGraphModel dx="2324" dy="1971" grid="1" gridSize="10" guides="1" tooltips="1" connect="1" arrows="1" fold="1" page="1" pageScale="1" pageWidth="827" pageHeight="1169" math="0" shadow="0">
      <root>
        <mxCell id="WIyWlLk6GJQsqaUBKTNV-0" />
        <mxCell id="WIyWlLk6GJQsqaUBKTNV-1" parent="WIyWlLk6GJQsqaUBKTNV-0" />
        <mxCell id="CSW-Kpyo8-qw9y4_yese-203" value="" style="rounded=0;whiteSpace=wrap;html=1;dashed=1;labelBackgroundColor=#CDEB8B;fillColor=#b0e3e6;fontSize=12;align=center;strokeColor=#0e8088;" vertex="1" parent="WIyWlLk6GJQsqaUBKTNV-1">
          <mxGeometry x="590" y="250" width="880" height="655" as="geometry" />
        </mxCell>
        <mxCell id="WIyWlLk6GJQsqaUBKTNV-2" value="" style="rounded=0;html=1;jettySize=auto;orthogonalLoop=1;fontSize=11;endArrow=block;endFill=0;endSize=8;strokeWidth=1;shadow=0;labelBackgroundColor=none;edgeStyle=orthogonalEdgeStyle;" parent="WIyWlLk6GJQsqaUBKTNV-1" source="WIyWlLk6GJQsqaUBKTNV-3" target="WIyWlLk6GJQsqaUBKTNV-6" edge="1">
          <mxGeometry relative="1" as="geometry" />
        </mxCell>
        <mxCell id="WIyWlLk6GJQsqaUBKTNV-3" value="getAppChanges" style="rounded=1;whiteSpace=wrap;html=1;fontSize=12;glass=0;strokeWidth=1;shadow=0;fillColor=#ffcc99;strokeColor=#36393d;" parent="WIyWlLk6GJQsqaUBKTNV-1" vertex="1">
          <mxGeometry x="160" y="50" width="120" height="40" as="geometry" />
        </mxCell>
        <mxCell id="WIyWlLk6GJQsqaUBKTNV-4" value="Yes" style="rounded=0;html=1;jettySize=auto;orthogonalLoop=1;fontSize=11;endArrow=block;endFill=0;endSize=8;strokeWidth=1;shadow=0;labelBackgroundColor=none;edgeStyle=orthogonalEdgeStyle;" parent="WIyWlLk6GJQsqaUBKTNV-1" source="WIyWlLk6GJQsqaUBKTNV-6" edge="1">
          <mxGeometry y="20" relative="1" as="geometry">
            <mxPoint as="offset" />
            <mxPoint x="220" y="290" as="targetPoint" />
          </mxGeometry>
        </mxCell>
        <mxCell id="WIyWlLk6GJQsqaUBKTNV-5" value="No" style="edgeStyle=orthogonalEdgeStyle;rounded=0;html=1;jettySize=auto;orthogonalLoop=1;fontSize=11;endArrow=block;endFill=0;endSize=8;strokeWidth=1;shadow=0;labelBackgroundColor=none;" parent="WIyWlLk6GJQsqaUBKTNV-1" source="WIyWlLk6GJQsqaUBKTNV-6" target="WIyWlLk6GJQsqaUBKTNV-7" edge="1">
          <mxGeometry y="10" relative="1" as="geometry">
            <mxPoint as="offset" />
          </mxGeometry>
        </mxCell>
        <mxCell id="WIyWlLk6GJQsqaUBKTNV-6" value="started" style="rhombus;whiteSpace=wrap;html=1;shadow=0;fontFamily=Helvetica;fontSize=12;align=center;strokeWidth=1;spacing=6;spacingTop=-4;fillColor=#b1ddf0;strokeColor=#10739e;" parent="WIyWlLk6GJQsqaUBKTNV-1" vertex="1">
          <mxGeometry x="170" y="170" width="100" height="80" as="geometry" />
        </mxCell>
        <mxCell id="CSW-Kpyo8-qw9y4_yese-50" style="edgeStyle=orthogonalEdgeStyle;rounded=0;orthogonalLoop=1;jettySize=auto;html=1;" edge="1" parent="WIyWlLk6GJQsqaUBKTNV-1" source="WIyWlLk6GJQsqaUBKTNV-7" target="CSW-Kpyo8-qw9y4_yese-36">
          <mxGeometry relative="1" as="geometry" />
        </mxCell>
        <mxCell id="WIyWlLk6GJQsqaUBKTNV-7" value="loadApps" style="rounded=1;whiteSpace=wrap;html=1;fontSize=12;glass=0;strokeWidth=1;shadow=0;" parent="WIyWlLk6GJQsqaUBKTNV-1" vertex="1">
          <mxGeometry x="320" y="190" width="120" height="40" as="geometry" />
        </mxCell>
        <mxCell id="CSW-Kpyo8-qw9y4_yese-41" style="edgeStyle=orthogonalEdgeStyle;rounded=0;orthogonalLoop=1;jettySize=auto;html=1;entryX=0.5;entryY=0;entryDx=0;entryDy=0;" edge="1" parent="WIyWlLk6GJQsqaUBKTNV-1" source="WIyWlLk6GJQsqaUBKTNV-12" target="CSW-Kpyo8-qw9y4_yese-38">
          <mxGeometry relative="1" as="geometry" />
        </mxCell>
        <mxCell id="WIyWlLk6GJQsqaUBKTNV-12" value="performAppChanges" style="rounded=1;whiteSpace=wrap;html=1;fontSize=12;glass=0;strokeWidth=1;shadow=0;" parent="WIyWlLk6GJQsqaUBKTNV-1" vertex="1">
          <mxGeometry x="160" y="290" width="120" height="40" as="geometry" />
        </mxCell>
        <mxCell id="CSW-Kpyo8-qw9y4_yese-1" style="edgeStyle=orthogonalEdgeStyle;rounded=0;orthogonalLoop=1;jettySize=auto;html=1;entryX=0.5;entryY=0;entryDx=0;entryDy=0;" edge="1" parent="WIyWlLk6GJQsqaUBKTNV-1" source="CSW-Kpyo8-qw9y4_yese-0" target="WIyWlLk6GJQsqaUBKTNV-3">
          <mxGeometry relative="1" as="geometry" />
        </mxCell>
        <mxCell id="CSW-Kpyo8-qw9y4_yese-0" value="reroute" style="rounded=1;whiteSpace=wrap;html=1;fontSize=12;glass=0;strokeWidth=1;shadow=0;fillColor=#d5e8d4;strokeColor=#82b366;" vertex="1" parent="WIyWlLk6GJQsqaUBKTNV-1">
          <mxGeometry x="160" y="-130" width="120" height="40" as="geometry" />
        </mxCell>
        <mxCell id="CSW-Kpyo8-qw9y4_yese-4" style="edgeStyle=orthogonalEdgeStyle;rounded=0;orthogonalLoop=1;jettySize=auto;html=1;entryX=0.5;entryY=0;entryDx=0;entryDy=0;" edge="1" parent="WIyWlLk6GJQsqaUBKTNV-1" source="CSW-Kpyo8-qw9y4_yese-3" target="CSW-Kpyo8-qw9y4_yese-0">
          <mxGeometry relative="1" as="geometry" />
        </mxCell>
        <mxCell id="CSW-Kpyo8-qw9y4_yese-3" value="&lt;b&gt;主应用执行&lt;br&gt;&lt;/b&gt;start()&lt;br&gt;registerApplication()" style="rounded=1;whiteSpace=wrap;html=1;fontSize=12;glass=0;strokeWidth=1;shadow=0;" vertex="1" parent="WIyWlLk6GJQsqaUBKTNV-1">
          <mxGeometry x="145" y="-460" width="150" height="70" as="geometry" />
        </mxCell>
        <mxCell id="CSW-Kpyo8-qw9y4_yese-5" value="&lt;h1&gt;reroute&lt;/h1&gt;&lt;p&gt;执行 start 和 registerApplication&lt;br&gt;都将执行 reroute 方法&lt;/p&gt;&lt;p&gt;不同在于 start() 时 started = true&lt;/p&gt;" style="text;html=1;strokeColor=#82b366;fillColor=#d5e8d4;spacing=5;spacingTop=-20;whiteSpace=wrap;overflow=hidden;rounded=0;" vertex="1" parent="WIyWlLk6GJQsqaUBKTNV-1">
          <mxGeometry x="300" y="-170" width="190" height="120" as="geometry" />
        </mxCell>
        <mxCell id="CSW-Kpyo8-qw9y4_yese-6" value="&lt;h1&gt;getAppChanges&lt;/h1&gt;&lt;p&gt;返回三个 Array&amp;lt;app&amp;gt; 提取不同状态的应用&lt;/p&gt;&lt;p&gt;appsToLoad: 待 load 的 app, &lt;span style=&quot;background-color: rgb(218 , 232 , 252)&quot;&gt;LOADING_SOURCE_CODE&lt;/span&gt;&lt;/p&gt;&lt;p&gt;appsToMont 待 mount 的 app, &lt;span style=&quot;background-color: rgb(230 , 208 , 222)&quot;&gt;NOT_MOUNTED&lt;/span&gt;&lt;/p&gt;&lt;p&gt;appsToUnmount 待 unmount 的 app, &lt;span style=&quot;background-color: rgb(255 , 242 , 204)&quot;&gt;MOUNTED&lt;/span&gt;&lt;/p&gt;&lt;p&gt;&lt;br&gt;&lt;/p&gt;" style="text;html=1;strokeColor=#36393d;fillColor=#ffcc99;spacing=5;spacingTop=-20;whiteSpace=wrap;overflow=hidden;rounded=0;" vertex="1" parent="WIyWlLk6GJQsqaUBKTNV-1">
          <mxGeometry x="295" y="-20" width="335" height="180" as="geometry" />
        </mxCell>
        <mxCell id="CSW-Kpyo8-qw9y4_yese-24" style="edgeStyle=orthogonalEdgeStyle;rounded=0;orthogonalLoop=1;jettySize=auto;html=1;entryX=1;entryY=0.5;entryDx=0;entryDy=0;" edge="1" parent="WIyWlLk6GJQsqaUBKTNV-1" source="CSW-Kpyo8-qw9y4_yese-17" target="CSW-Kpyo8-qw9y4_yese-6">
          <mxGeometry relative="1" as="geometry" />
        </mxCell>
        <mxCell id="CSW-Kpyo8-qw9y4_yese-26" style="edgeStyle=orthogonalEdgeStyle;rounded=0;orthogonalLoop=1;jettySize=auto;html=1;" edge="1" parent="WIyWlLk6GJQsqaUBKTNV-1" source="CSW-Kpyo8-qw9y4_yese-17" target="CSW-Kpyo8-qw9y4_yese-6">
          <mxGeometry relative="1" as="geometry" />
        </mxCell>
        <mxCell id="CSW-Kpyo8-qw9y4_yese-17" value="shouldBeActive" style="rounded=1;whiteSpace=wrap;html=1;fontSize=12;glass=0;strokeWidth=1;shadow=0;fillColor=#f5f5f5;strokeColor=#666666;fontColor=#333333;" vertex="1" parent="WIyWlLk6GJQsqaUBKTNV-1">
          <mxGeometry x="700" y="50" width="120" height="40" as="geometry" />
        </mxCell>
        <mxCell id="CSW-Kpyo8-qw9y4_yese-28" style="edgeStyle=orthogonalEdgeStyle;rounded=0;orthogonalLoop=1;jettySize=auto;html=1;" edge="1" parent="WIyWlLk6GJQsqaUBKTNV-1" source="CSW-Kpyo8-qw9y4_yese-18" target="CSW-Kpyo8-qw9y4_yese-27">
          <mxGeometry relative="1" as="geometry" />
        </mxCell>
        <mxCell id="CSW-Kpyo8-qw9y4_yese-18" value="apps.forEach" style="rounded=1;whiteSpace=wrap;html=1;fontSize=12;glass=0;strokeWidth=1;shadow=0;" vertex="1" parent="WIyWlLk6GJQsqaUBKTNV-1">
          <mxGeometry x="700" y="-90" width="120" height="40" as="geometry" />
        </mxCell>
        <mxCell id="CSW-Kpyo8-qw9y4_yese-20" style="edgeStyle=orthogonalEdgeStyle;rounded=0;orthogonalLoop=1;jettySize=auto;html=1;" edge="1" parent="WIyWlLk6GJQsqaUBKTNV-1" source="CSW-Kpyo8-qw9y4_yese-19" target="CSW-Kpyo8-qw9y4_yese-18">
          <mxGeometry relative="1" as="geometry" />
        </mxCell>
        <mxCell id="CSW-Kpyo8-qw9y4_yese-19" value="apps" style="rounded=1;whiteSpace=wrap;html=1;fontSize=12;glass=0;strokeWidth=1;shadow=0;" vertex="1" parent="WIyWlLk6GJQsqaUBKTNV-1">
          <mxGeometry x="700" y="-155" width="120" height="40" as="geometry" />
        </mxCell>
        <mxCell id="CSW-Kpyo8-qw9y4_yese-25" value="&lt;h1&gt;shouldBeActive&lt;/h1&gt;&lt;p&gt;app.activeWhen(window.location)&lt;/p&gt;&lt;p&gt;根据 location 匹配 app 的激活规则&lt;/p&gt;" style="text;html=1;strokeColor=#666666;fillColor=#f5f5f5;spacing=5;spacingTop=-20;whiteSpace=wrap;overflow=hidden;rounded=0;fontColor=#333333;" vertex="1" parent="WIyWlLk6GJQsqaUBKTNV-1">
          <mxGeometry x="640" y="110" width="290" height="120" as="geometry" />
        </mxCell>
        <mxCell id="CSW-Kpyo8-qw9y4_yese-29" style="edgeStyle=orthogonalEdgeStyle;rounded=0;orthogonalLoop=1;jettySize=auto;html=1;entryX=0.5;entryY=0;entryDx=0;entryDy=0;" edge="1" parent="WIyWlLk6GJQsqaUBKTNV-1" source="CSW-Kpyo8-qw9y4_yese-27" target="CSW-Kpyo8-qw9y4_yese-17">
          <mxGeometry relative="1" as="geometry" />
        </mxCell>
        <mxCell id="CSW-Kpyo8-qw9y4_yese-27" value="判断生命周期" style="rounded=1;whiteSpace=wrap;html=1;fontSize=12;glass=0;strokeWidth=1;shadow=0;fillColor=#b1ddf0;strokeColor=#10739e;" vertex="1" parent="WIyWlLk6GJQsqaUBKTNV-1">
          <mxGeometry x="700" y="-20" width="120" height="40" as="geometry" />
        </mxCell>
        <mxCell id="CSW-Kpyo8-qw9y4_yese-36" value="加载应用，执行 app.loadApp &lt;br&gt;" style="text;strokeColor=#36393d;spacing=5;spacingTop=-20;overflow=hidden;rounded=0;verticalAlign=bottom;align=center;html=1;whiteSpace=wrap;labelBorderColor=none;fillColor=#cce5ff;" vertex="1" parent="WIyWlLk6GJQsqaUBKTNV-1">
          <mxGeometry x="292.5" y="270" width="175" height="30" as="geometry" />
        </mxCell>
        <mxCell id="CSW-Kpyo8-qw9y4_yese-42" style="edgeStyle=orthogonalEdgeStyle;rounded=0;orthogonalLoop=1;jettySize=auto;html=1;entryX=0.5;entryY=0;entryDx=0;entryDy=0;" edge="1" parent="WIyWlLk6GJQsqaUBKTNV-1" source="CSW-Kpyo8-qw9y4_yese-38" target="CSW-Kpyo8-qw9y4_yese-39">
          <mxGeometry relative="1" as="geometry" />
        </mxCell>
        <mxCell id="CSW-Kpyo8-qw9y4_yese-45" style="edgeStyle=orthogonalEdgeStyle;rounded=0;orthogonalLoop=1;jettySize=auto;html=1;entryX=0.5;entryY=0;entryDx=0;entryDy=0;" edge="1" parent="WIyWlLk6GJQsqaUBKTNV-1" source="CSW-Kpyo8-qw9y4_yese-38" target="CSW-Kpyo8-qw9y4_yese-40">
          <mxGeometry relative="1" as="geometry" />
        </mxCell>
        <mxCell id="CSW-Kpyo8-qw9y4_yese-53" style="edgeStyle=orthogonalEdgeStyle;rounded=0;orthogonalLoop=1;jettySize=auto;html=1;entryX=0;entryY=0.5;entryDx=0;entryDy=0;" edge="1" parent="WIyWlLk6GJQsqaUBKTNV-1" source="CSW-Kpyo8-qw9y4_yese-38" target="CSW-Kpyo8-qw9y4_yese-52">
          <mxGeometry relative="1" as="geometry" />
        </mxCell>
        <mxCell id="CSW-Kpyo8-qw9y4_yese-38" value="appsToUnmount&lt;br&gt;卸载" style="rounded=1;whiteSpace=wrap;html=1;fontSize=12;glass=0;strokeWidth=1;shadow=0;" vertex="1" parent="WIyWlLk6GJQsqaUBKTNV-1">
          <mxGeometry x="160" y="370" width="120" height="60" as="geometry" />
        </mxCell>
        <mxCell id="CSW-Kpyo8-qw9y4_yese-48" style="edgeStyle=orthogonalEdgeStyle;rounded=0;orthogonalLoop=1;jettySize=auto;html=1;entryX=0.5;entryY=0;entryDx=0;entryDy=0;" edge="1" parent="WIyWlLk6GJQsqaUBKTNV-1" source="CSW-Kpyo8-qw9y4_yese-39" target="CSW-Kpyo8-qw9y4_yese-46">
          <mxGeometry relative="1" as="geometry" />
        </mxCell>
        <mxCell id="CSW-Kpyo8-qw9y4_yese-39" value="appsToLoad &lt;br&gt;加载、启动、挂载" style="rounded=1;whiteSpace=wrap;html=1;fontSize=12;glass=0;strokeWidth=1;shadow=0;" vertex="1" parent="WIyWlLk6GJQsqaUBKTNV-1">
          <mxGeometry x="70" y="490" width="130" height="70" as="geometry" />
        </mxCell>
        <mxCell id="CSW-Kpyo8-qw9y4_yese-49" style="edgeStyle=orthogonalEdgeStyle;rounded=0;orthogonalLoop=1;jettySize=auto;html=1;entryX=0.5;entryY=0;entryDx=0;entryDy=0;" edge="1" parent="WIyWlLk6GJQsqaUBKTNV-1" source="CSW-Kpyo8-qw9y4_yese-40" target="CSW-Kpyo8-qw9y4_yese-47">
          <mxGeometry relative="1" as="geometry" />
        </mxCell>
        <mxCell id="CSW-Kpyo8-qw9y4_yese-40" value="appsToMount&lt;br&gt;启动、挂载" style="rounded=1;whiteSpace=wrap;html=1;fontSize=12;glass=0;strokeWidth=1;shadow=0;" vertex="1" parent="WIyWlLk6GJQsqaUBKTNV-1">
          <mxGeometry x="250" y="490" width="120" height="70" as="geometry" />
        </mxCell>
        <mxCell id="CSW-Kpyo8-qw9y4_yese-127" style="edgeStyle=orthogonalEdgeStyle;rounded=0;orthogonalLoop=1;jettySize=auto;html=1;entryX=0.5;entryY=0;entryDx=0;entryDy=0;fontColor=#FF9933;" edge="1" parent="WIyWlLk6GJQsqaUBKTNV-1" source="CSW-Kpyo8-qw9y4_yese-46" target="CSW-Kpyo8-qw9y4_yese-126">
          <mxGeometry relative="1" as="geometry" />
        </mxCell>
        <mxCell id="CSW-Kpyo8-qw9y4_yese-46" value="" style="rounded=0;whiteSpace=wrap;html=1;align=center;dashed=1;" vertex="1" parent="WIyWlLk6GJQsqaUBKTNV-1">
          <mxGeometry x="10" y="600" width="210" height="115" as="geometry" />
        </mxCell>
        <mxCell id="CSW-Kpyo8-qw9y4_yese-128" style="edgeStyle=orthogonalEdgeStyle;rounded=0;orthogonalLoop=1;jettySize=auto;html=1;entryX=0.563;entryY=0;entryDx=0;entryDy=0;entryPerimeter=0;fontColor=#FF9933;" edge="1" parent="WIyWlLk6GJQsqaUBKTNV-1" source="CSW-Kpyo8-qw9y4_yese-47" target="CSW-Kpyo8-qw9y4_yese-126">
          <mxGeometry relative="1" as="geometry" />
        </mxCell>
        <mxCell id="CSW-Kpyo8-qw9y4_yese-47" value="&lt;br&gt;" style="rounded=0;whiteSpace=wrap;html=1;align=center;" vertex="1" parent="WIyWlLk6GJQsqaUBKTNV-1">
          <mxGeometry x="255" y="600" width="210" height="115" as="geometry" />
        </mxCell>
        <mxCell id="CSW-Kpyo8-qw9y4_yese-52" value="&lt;h1&gt;&lt;span style=&quot;font-size: 12px ; font-weight: normal&quot;&gt;卸载应用，执行 app.unmount&lt;/span&gt;&lt;/h1&gt;" style="text;html=1;strokeColor=#36393d;fillColor=#ffcccc;spacing=5;spacingTop=-20;whiteSpace=wrap;overflow=hidden;rounded=0;verticalAlign=bottom;align=center;" vertex="1" parent="WIyWlLk6GJQsqaUBKTNV-1">
          <mxGeometry x="317.5" y="380" width="190" height="40" as="geometry" />
        </mxCell>
        <mxCell id="CSW-Kpyo8-qw9y4_yese-125" value="&lt;h1&gt;navigator-events&lt;/h1&gt;&lt;p&gt;1. 捕获 hashchange, popstate. 将事件回调存入 &lt;b&gt;&lt;u&gt;capturedEventListeners &lt;/u&gt;&lt;/b&gt;中待 reroute 完成后执行&lt;br&gt;2. 为 pushState, replaceState 打补丁, 解决 window.hitsotry api 触发的 URL 变化&lt;/p&gt;" style="text;html=1;strokeColor=#36393d;fillColor=#cdeb8b;spacing=5;spacingTop=-20;whiteSpace=wrap;overflow=hidden;rounded=0;" vertex="1" parent="WIyWlLk6GJQsqaUBKTNV-1">
          <mxGeometry x="295" y="-350" width="235" height="140" as="geometry" />
        </mxCell>
        <mxCell id="CSW-Kpyo8-qw9y4_yese-136" style="edgeStyle=orthogonalEdgeStyle;rounded=0;orthogonalLoop=1;jettySize=auto;html=1;entryX=0.505;entryY=1;entryDx=0;entryDy=0;entryPerimeter=0;fontColor=#FF9933;dashed=1;strokeWidth=2;" edge="1" parent="WIyWlLk6GJQsqaUBKTNV-1" source="CSW-Kpyo8-qw9y4_yese-126" target="CSW-Kpyo8-qw9y4_yese-134">
          <mxGeometry relative="1" as="geometry" />
        </mxCell>
        <mxCell id="CSW-Kpyo8-qw9y4_yese-141" value="forEach&amp;nbsp;" style="edgeLabel;html=1;align=center;verticalAlign=middle;resizable=0;points=[];noLabel=1;fontColor=none;" vertex="1" connectable="0" parent="CSW-Kpyo8-qw9y4_yese-136">
          <mxGeometry x="0.3545" y="1" relative="1" as="geometry">
            <mxPoint as="offset" />
          </mxGeometry>
        </mxCell>
        <mxCell id="CSW-Kpyo8-qw9y4_yese-144" value="capturedEventListeners[eventName].forEach" style="edgeLabel;html=1;align=center;verticalAlign=middle;resizable=0;points=[];fontColor=none;fontSize=12;labelBackgroundColor=#CDEB8B;labelBorderColor=#000000;" vertex="1" connectable="0" parent="CSW-Kpyo8-qw9y4_yese-136">
          <mxGeometry x="0.4092" y="-1" relative="1" as="geometry">
            <mxPoint as="offset" />
          </mxGeometry>
        </mxCell>
        <mxCell id="CSW-Kpyo8-qw9y4_yese-126" value="callCapturedEventListeners" style="rounded=1;whiteSpace=wrap;html=1;fontSize=12;glass=0;strokeWidth=1;shadow=0;fillColor=#cdeb8b;strokeColor=#36393d;" vertex="1" parent="WIyWlLk6GJQsqaUBKTNV-1">
          <mxGeometry x="125" y="780" width="190" height="40" as="geometry" />
        </mxCell>
        <mxCell id="CSW-Kpyo8-qw9y4_yese-133" style="edgeStyle=orthogonalEdgeStyle;rounded=0;orthogonalLoop=1;jettySize=auto;html=1;entryX=0.5;entryY=0;entryDx=0;entryDy=0;fontColor=#FF9933;" edge="1" parent="WIyWlLk6GJQsqaUBKTNV-1" source="CSW-Kpyo8-qw9y4_yese-129" target="CSW-Kpyo8-qw9y4_yese-3">
          <mxGeometry relative="1" as="geometry" />
        </mxCell>
        <mxCell id="CSW-Kpyo8-qw9y4_yese-129" value="&lt;font color=&quot;#000000&quot; style=&quot;background-color: rgb(249 , 247 , 237)&quot;&gt;浏览器打开页面初次启动&lt;/font&gt;" style="rounded=1;whiteSpace=wrap;html=1;labelBackgroundColor=#ffffff;align=center;fillColor=#f9f7ed;strokeColor=#36393d;" vertex="1" parent="WIyWlLk6GJQsqaUBKTNV-1">
          <mxGeometry x="150" y="-584" width="140" height="64" as="geometry" />
        </mxCell>
        <mxCell id="CSW-Kpyo8-qw9y4_yese-132" style="edgeStyle=orthogonalEdgeStyle;rounded=0;orthogonalLoop=1;jettySize=auto;html=1;entryX=0;entryY=0.75;entryDx=0;entryDy=0;fontColor=#FF9933;" edge="1" parent="WIyWlLk6GJQsqaUBKTNV-1" source="CSW-Kpyo8-qw9y4_yese-130" target="CSW-Kpyo8-qw9y4_yese-0">
          <mxGeometry relative="1" as="geometry" />
        </mxCell>
        <mxCell id="CSW-Kpyo8-qw9y4_yese-130" value="&lt;div style=&quot;&quot;&gt;&lt;span style=&quot;&quot;&gt;1.浏览器导航操作&lt;/span&gt;&lt;/div&gt;&lt;font color=&quot;#000000&quot;&gt;&lt;div style=&quot;&quot;&gt;&lt;span style=&quot;&quot;&gt;2.history api&lt;/span&gt;&lt;/div&gt;&lt;span style=&quot;&quot;&gt;&lt;div style=&quot;&quot;&gt;3.hashchange, popstate&lt;/div&gt;&lt;/span&gt;&lt;/font&gt;" style="rounded=1;whiteSpace=wrap;html=1;labelBackgroundColor=none;align=center;strokeColor=#36393d;fillColor=#F9F7ED;" vertex="1" parent="WIyWlLk6GJQsqaUBKTNV-1">
          <mxGeometry x="-80" y="-584" width="150" height="67" as="geometry" />
        </mxCell>
        <mxCell id="CSW-Kpyo8-qw9y4_yese-131" value="&lt;h1&gt;navigator-events&lt;/h1&gt;&lt;p&gt;子应用加载流程结束, 执行所有捕获的事件回调&lt;/p&gt;&lt;u style=&quot;font-weight: bold&quot;&gt;capturedEventListeners&amp;nbsp;&lt;/u&gt;" style="text;html=1;strokeColor=#36393d;fillColor=#cdeb8b;spacing=5;spacingTop=-20;whiteSpace=wrap;overflow=hidden;rounded=0;" vertex="1" parent="WIyWlLk6GJQsqaUBKTNV-1">
          <mxGeometry x="320" y="770" width="235" height="140" as="geometry" />
        </mxCell>
        <mxCell id="CSW-Kpyo8-qw9y4_yese-135" style="edgeStyle=orthogonalEdgeStyle;rounded=0;orthogonalLoop=1;jettySize=auto;html=1;entryX=0.5;entryY=0.014;entryDx=0;entryDy=0;entryPerimeter=0;fontColor=#FF9933;dashed=1;strokeWidth=2;" edge="1" parent="WIyWlLk6GJQsqaUBKTNV-1" source="CSW-Kpyo8-qw9y4_yese-123" target="CSW-Kpyo8-qw9y4_yese-134">
          <mxGeometry relative="1" as="geometry" />
        </mxCell>
        <mxCell id="CSW-Kpyo8-qw9y4_yese-145" value="capturedEventListeners[eventName].push(fn)" style="edgeLabel;html=1;align=center;verticalAlign=middle;resizable=0;points=[];fontColor=none;fontSize=12;labelBackgroundColor=#CDEB8B;labelBorderColor=#000000;" vertex="1" connectable="0" parent="CSW-Kpyo8-qw9y4_yese-135">
          <mxGeometry x="0.3685" y="2" relative="1" as="geometry">
            <mxPoint as="offset" />
          </mxGeometry>
        </mxCell>
        <mxCell id="CSW-Kpyo8-qw9y4_yese-123" value="navigator-events" style="rounded=1;whiteSpace=wrap;html=1;fontSize=12;glass=0;strokeWidth=1;shadow=0;fillColor=#cdeb8b;strokeColor=#36393d;" vertex="1" parent="WIyWlLk6GJQsqaUBKTNV-1">
          <mxGeometry x="50" y="-310" width="230" height="40" as="geometry" />
        </mxCell>
        <mxCell id="CSW-Kpyo8-qw9y4_yese-134" value="capturedEventListeners" style="shape=cube;whiteSpace=wrap;html=1;boundedLbl=1;backgroundOutline=1;darkOpacity=0.05;darkOpacity2=0.1;labelBackgroundColor=none;align=center;fillColor=#cdeb8b;strokeColor=#36393d;" vertex="1" parent="WIyWlLk6GJQsqaUBKTNV-1">
          <mxGeometry x="-190" y="170" width="200" height="150" as="geometry" />
        </mxCell>
        <mxCell id="CSW-Kpyo8-qw9y4_yese-147" value="" style="rounded=0;whiteSpace=wrap;html=1;align=left;fillColor=#f8cecc;strokeColor=#b85450;" vertex="1" parent="WIyWlLk6GJQsqaUBKTNV-1">
          <mxGeometry x="1140" y="650" width="280" height="200" as="geometry" />
        </mxCell>
        <mxCell id="CSW-Kpyo8-qw9y4_yese-148" value="" style="rounded=0;whiteSpace=wrap;html=1;align=left;fillColor=#fff2cc;strokeColor=#d6b656;" vertex="1" parent="WIyWlLk6GJQsqaUBKTNV-1">
          <mxGeometry x="760" y="615" width="370" height="130" as="geometry" />
        </mxCell>
        <mxCell id="CSW-Kpyo8-qw9y4_yese-149" value="" style="rounded=0;whiteSpace=wrap;html=1;align=left;fillColor=#e1d5e7;strokeColor=#9673a6;" vertex="1" parent="WIyWlLk6GJQsqaUBKTNV-1">
          <mxGeometry x="760" y="470" width="370" height="130" as="geometry" />
        </mxCell>
        <mxCell id="CSW-Kpyo8-qw9y4_yese-150" style="edgeStyle=orthogonalEdgeStyle;rounded=0;orthogonalLoop=1;jettySize=auto;html=1;exitX=1;exitY=0.5;exitDx=0;exitDy=0;dashed=1;" edge="1" parent="WIyWlLk6GJQsqaUBKTNV-1" source="CSW-Kpyo8-qw9y4_yese-151" target="CSW-Kpyo8-qw9y4_yese-188">
          <mxGeometry relative="1" as="geometry" />
        </mxCell>
        <mxCell id="CSW-Kpyo8-qw9y4_yese-151" value="" style="rounded=0;whiteSpace=wrap;html=1;align=left;fillColor=#b1ddf0;strokeColor=#10739e;" vertex="1" parent="WIyWlLk6GJQsqaUBKTNV-1">
          <mxGeometry x="760" y="330" width="370" height="130" as="geometry" />
        </mxCell>
        <mxCell id="CSW-Kpyo8-qw9y4_yese-152" style="edgeStyle=orthogonalEdgeStyle;rounded=0;orthogonalLoop=1;jettySize=auto;html=1;" edge="1" parent="WIyWlLk6GJQsqaUBKTNV-1" source="CSW-Kpyo8-qw9y4_yese-153" target="CSW-Kpyo8-qw9y4_yese-155">
          <mxGeometry relative="1" as="geometry" />
        </mxCell>
        <mxCell id="CSW-Kpyo8-qw9y4_yese-153" value="NOT_LOAD" style="rounded=1;whiteSpace=wrap;html=1;align=center;gradientColor=#b3b3b3;fillColor=#f5f5f5;strokeColor=#666666;" vertex="1" parent="WIyWlLk6GJQsqaUBKTNV-1">
          <mxGeometry x="851" y="270" width="180" height="40" as="geometry" />
        </mxCell>
        <mxCell id="CSW-Kpyo8-qw9y4_yese-154" style="edgeStyle=orthogonalEdgeStyle;rounded=0;orthogonalLoop=1;jettySize=auto;html=1;" edge="1" parent="WIyWlLk6GJQsqaUBKTNV-1" source="CSW-Kpyo8-qw9y4_yese-155" target="CSW-Kpyo8-qw9y4_yese-157">
          <mxGeometry relative="1" as="geometry" />
        </mxCell>
        <mxCell id="CSW-Kpyo8-qw9y4_yese-155" value="LOADING_SOURCE_CODE" style="rounded=1;whiteSpace=wrap;html=1;align=center;gradientColor=#7ea6e0;fillColor=#dae8fc;strokeColor=#6c8ebf;" vertex="1" parent="WIyWlLk6GJQsqaUBKTNV-1">
          <mxGeometry x="851" y="340" width="180" height="40" as="geometry" />
        </mxCell>
        <mxCell id="CSW-Kpyo8-qw9y4_yese-156" style="edgeStyle=orthogonalEdgeStyle;rounded=0;orthogonalLoop=1;jettySize=auto;html=1;entryX=0.5;entryY=0;entryDx=0;entryDy=0;" edge="1" parent="WIyWlLk6GJQsqaUBKTNV-1" source="CSW-Kpyo8-qw9y4_yese-157" target="CSW-Kpyo8-qw9y4_yese-159">
          <mxGeometry relative="1" as="geometry" />
        </mxCell>
        <mxCell id="CSW-Kpyo8-qw9y4_yese-157" value="NOT_BOOTSTRAPPED" style="rounded=1;whiteSpace=wrap;html=1;align=center;gradientColor=#7ea6e0;fillColor=#dae8fc;strokeColor=#6c8ebf;" vertex="1" parent="WIyWlLk6GJQsqaUBKTNV-1">
          <mxGeometry x="851" y="410" width="180" height="40" as="geometry" />
        </mxCell>
        <mxCell id="CSW-Kpyo8-qw9y4_yese-158" style="edgeStyle=orthogonalEdgeStyle;rounded=0;orthogonalLoop=1;jettySize=auto;html=1;entryX=0.5;entryY=0;entryDx=0;entryDy=0;" edge="1" parent="WIyWlLk6GJQsqaUBKTNV-1" source="CSW-Kpyo8-qw9y4_yese-159" target="CSW-Kpyo8-qw9y4_yese-161">
          <mxGeometry relative="1" as="geometry" />
        </mxCell>
        <mxCell id="CSW-Kpyo8-qw9y4_yese-159" value="BOOTSTRAPPING" style="rounded=1;whiteSpace=wrap;html=1;align=center;gradientColor=#d5739d;fillColor=#e6d0de;strokeColor=#996185;" vertex="1" parent="WIyWlLk6GJQsqaUBKTNV-1">
          <mxGeometry x="851" y="480" width="180" height="40" as="geometry" />
        </mxCell>
        <mxCell id="CSW-Kpyo8-qw9y4_yese-160" style="edgeStyle=orthogonalEdgeStyle;rounded=0;orthogonalLoop=1;jettySize=auto;html=1;entryX=0.5;entryY=0;entryDx=0;entryDy=0;" edge="1" parent="WIyWlLk6GJQsqaUBKTNV-1" source="CSW-Kpyo8-qw9y4_yese-161" target="CSW-Kpyo8-qw9y4_yese-163">
          <mxGeometry relative="1" as="geometry" />
        </mxCell>
        <mxCell id="CSW-Kpyo8-qw9y4_yese-161" value="NOT_MOUNTED" style="rounded=1;whiteSpace=wrap;html=1;align=center;gradientColor=#d5739d;fillColor=#e6d0de;strokeColor=#996185;" vertex="1" parent="WIyWlLk6GJQsqaUBKTNV-1">
          <mxGeometry x="851" y="550" width="180" height="40" as="geometry" />
        </mxCell>
        <mxCell id="CSW-Kpyo8-qw9y4_yese-162" style="edgeStyle=orthogonalEdgeStyle;rounded=0;orthogonalLoop=1;jettySize=auto;html=1;entryX=0.5;entryY=0;entryDx=0;entryDy=0;" edge="1" parent="WIyWlLk6GJQsqaUBKTNV-1" source="CSW-Kpyo8-qw9y4_yese-163" target="CSW-Kpyo8-qw9y4_yese-166">
          <mxGeometry relative="1" as="geometry" />
        </mxCell>
        <mxCell id="CSW-Kpyo8-qw9y4_yese-163" value="MOUNTING" style="rounded=1;whiteSpace=wrap;html=1;align=center;gradientColor=#ffd966;strokeColor=#d6b656;fillColor=#FFF2CC;" vertex="1" parent="WIyWlLk6GJQsqaUBKTNV-1">
          <mxGeometry x="851" y="620" width="180" height="40" as="geometry" />
        </mxCell>
        <mxCell id="CSW-Kpyo8-qw9y4_yese-164" style="edgeStyle=orthogonalEdgeStyle;rounded=0;orthogonalLoop=1;jettySize=auto;html=1;entryX=0.5;entryY=1;entryDx=0;entryDy=0;" edge="1" parent="WIyWlLk6GJQsqaUBKTNV-1" source="CSW-Kpyo8-qw9y4_yese-166" target="CSW-Kpyo8-qw9y4_yese-173">
          <mxGeometry relative="1" as="geometry" />
        </mxCell>
        <mxCell id="CSW-Kpyo8-qw9y4_yese-165" style="edgeStyle=orthogonalEdgeStyle;rounded=0;orthogonalLoop=1;jettySize=auto;html=1;entryX=0;entryY=0.5;entryDx=0;entryDy=0;" edge="1" parent="WIyWlLk6GJQsqaUBKTNV-1" source="CSW-Kpyo8-qw9y4_yese-166" target="CSW-Kpyo8-qw9y4_yese-169">
          <mxGeometry relative="1" as="geometry" />
        </mxCell>
        <mxCell id="CSW-Kpyo8-qw9y4_yese-166" value="MOUNTED" style="rounded=1;whiteSpace=wrap;html=1;align=center;gradientColor=#ffd966;fillColor=#fff2cc;strokeColor=#d6b656;" vertex="1" parent="WIyWlLk6GJQsqaUBKTNV-1">
          <mxGeometry x="851" y="690" width="180" height="40" as="geometry" />
        </mxCell>
        <mxCell id="CSW-Kpyo8-qw9y4_yese-167" style="edgeStyle=orthogonalEdgeStyle;rounded=0;orthogonalLoop=1;jettySize=auto;html=1;" edge="1" parent="WIyWlLk6GJQsqaUBKTNV-1" source="CSW-Kpyo8-qw9y4_yese-169" target="CSW-Kpyo8-qw9y4_yese-171">
          <mxGeometry relative="1" as="geometry" />
        </mxCell>
        <mxCell id="CSW-Kpyo8-qw9y4_yese-168" style="edgeStyle=orthogonalEdgeStyle;rounded=0;orthogonalLoop=1;jettySize=auto;html=1;exitX=0.5;exitY=0;exitDx=0;exitDy=0;entryX=1;entryY=0.5;entryDx=0;entryDy=0;" edge="1" parent="WIyWlLk6GJQsqaUBKTNV-1" source="CSW-Kpyo8-qw9y4_yese-169" target="CSW-Kpyo8-qw9y4_yese-161">
          <mxGeometry relative="1" as="geometry" />
        </mxCell>
        <mxCell id="CSW-Kpyo8-qw9y4_yese-169" value="UNMOUNTEDING" style="rounded=1;whiteSpace=wrap;html=1;align=center;gradientColor=#ea6b66;fillColor=#f8cecc;strokeColor=#b85450;" vertex="1" parent="WIyWlLk6GJQsqaUBKTNV-1">
          <mxGeometry x="1170" y="685" width="180" height="40" as="geometry" />
        </mxCell>
        <mxCell id="CSW-Kpyo8-qw9y4_yese-170" style="edgeStyle=orthogonalEdgeStyle;rounded=0;orthogonalLoop=1;jettySize=auto;html=1;exitX=1;exitY=0.5;exitDx=0;exitDy=0;entryX=1;entryY=0.5;entryDx=0;entryDy=0;" edge="1" parent="WIyWlLk6GJQsqaUBKTNV-1" source="CSW-Kpyo8-qw9y4_yese-171" target="CSW-Kpyo8-qw9y4_yese-153">
          <mxGeometry relative="1" as="geometry" />
        </mxCell>
        <mxCell id="CSW-Kpyo8-qw9y4_yese-171" value="UNLOADING" style="rounded=1;whiteSpace=wrap;html=1;align=center;gradientColor=#ea6b66;fillColor=#f8cecc;strokeColor=#b85450;" vertex="1" parent="WIyWlLk6GJQsqaUBKTNV-1">
          <mxGeometry x="1170" y="780" width="180" height="40" as="geometry" />
        </mxCell>
        <mxCell id="CSW-Kpyo8-qw9y4_yese-172" style="edgeStyle=orthogonalEdgeStyle;rounded=0;orthogonalLoop=1;jettySize=auto;html=1;" edge="1" parent="WIyWlLk6GJQsqaUBKTNV-1" source="CSW-Kpyo8-qw9y4_yese-173" target="CSW-Kpyo8-qw9y4_yese-163">
          <mxGeometry relative="1" as="geometry" />
        </mxCell>
        <mxCell id="CSW-Kpyo8-qw9y4_yese-173" value="UPDATING" style="rounded=1;whiteSpace=wrap;html=1;align=center;gradientColor=#97d077;fillColor=#d5e8d4;strokeColor=#82b366;" vertex="1" parent="WIyWlLk6GJQsqaUBKTNV-1">
          <mxGeometry x="610" y="660" width="100" height="40" as="geometry" />
        </mxCell>
        <mxCell id="CSW-Kpyo8-qw9y4_yese-174" value="未加载" style="text;html=1;strokeColor=none;fillColor=none;align=center;verticalAlign=middle;whiteSpace=wrap;rounded=0;" vertex="1" parent="WIyWlLk6GJQsqaUBKTNV-1">
          <mxGeometry x="801" y="280" width="40" height="20" as="geometry" />
        </mxCell>
        <mxCell id="CSW-Kpyo8-qw9y4_yese-175" value="加载中" style="text;html=1;strokeColor=none;fillColor=none;align=center;verticalAlign=middle;whiteSpace=wrap;rounded=0;" vertex="1" parent="WIyWlLk6GJQsqaUBKTNV-1">
          <mxGeometry x="801" y="350" width="40" height="20" as="geometry" />
        </mxCell>
        <mxCell id="CSW-Kpyo8-qw9y4_yese-176" value="未启动" style="text;html=1;strokeColor=none;fillColor=none;align=center;verticalAlign=middle;whiteSpace=wrap;rounded=0;" vertex="1" parent="WIyWlLk6GJQsqaUBKTNV-1">
          <mxGeometry x="800" y="420" width="40" height="20" as="geometry" />
        </mxCell>
        <mxCell id="CSW-Kpyo8-qw9y4_yese-177" value="启动中" style="text;html=1;strokeColor=none;fillColor=none;align=center;verticalAlign=middle;whiteSpace=wrap;rounded=0;" vertex="1" parent="WIyWlLk6GJQsqaUBKTNV-1">
          <mxGeometry x="800" y="490" width="40" height="20" as="geometry" />
        </mxCell>
        <mxCell id="CSW-Kpyo8-qw9y4_yese-178" value="未挂载" style="text;html=1;strokeColor=none;fillColor=none;align=center;verticalAlign=middle;whiteSpace=wrap;rounded=0;" vertex="1" parent="WIyWlLk6GJQsqaUBKTNV-1">
          <mxGeometry x="800" y="560" width="40" height="20" as="geometry" />
        </mxCell>
        <mxCell id="CSW-Kpyo8-qw9y4_yese-179" value="挂载中" style="text;html=1;strokeColor=none;fillColor=none;align=center;verticalAlign=middle;whiteSpace=wrap;rounded=0;" vertex="1" parent="WIyWlLk6GJQsqaUBKTNV-1">
          <mxGeometry x="811" y="645" width="40" height="20" as="geometry" />
        </mxCell>
        <mxCell id="CSW-Kpyo8-qw9y4_yese-180" value="已挂载" style="text;html=1;strokeColor=none;fillColor=none;align=center;verticalAlign=middle;whiteSpace=wrap;rounded=0;" vertex="1" parent="WIyWlLk6GJQsqaUBKTNV-1">
          <mxGeometry x="811" y="685" width="40" height="20" as="geometry" />
        </mxCell>
        <mxCell id="CSW-Kpyo8-qw9y4_yese-181" value="卸载中" style="text;html=1;strokeColor=none;fillColor=none;align=center;verticalAlign=middle;whiteSpace=wrap;rounded=0;" vertex="1" parent="WIyWlLk6GJQsqaUBKTNV-1">
          <mxGeometry x="1200" y="660" width="40" height="20" as="geometry" />
        </mxCell>
        <mxCell id="CSW-Kpyo8-qw9y4_yese-182" value="完全卸载" style="text;html=1;strokeColor=none;fillColor=none;align=center;verticalAlign=middle;whiteSpace=wrap;rounded=0;" vertex="1" parent="WIyWlLk6GJQsqaUBKTNV-1">
          <mxGeometry x="1190" y="760" width="60" height="20" as="geometry" />
        </mxCell>
        <mxCell id="CSW-Kpyo8-qw9y4_yese-183" value="更新" style="text;html=1;strokeColor=none;fillColor=none;align=center;verticalAlign=middle;whiteSpace=wrap;rounded=0;" vertex="1" parent="WIyWlLk6GJQsqaUBKTNV-1">
          <mxGeometry x="640" y="640" width="40" height="20" as="geometry" />
        </mxCell>
        <mxCell id="CSW-Kpyo8-qw9y4_yese-184" value="加载阶段" style="text;html=1;strokeColor=none;fillColor=none;align=center;verticalAlign=middle;whiteSpace=wrap;rounded=0;fontStyle=1;" vertex="1" parent="WIyWlLk6GJQsqaUBKTNV-1">
          <mxGeometry x="1050" y="380" width="50" height="20" as="geometry" />
        </mxCell>
        <mxCell id="CSW-Kpyo8-qw9y4_yese-185" value="启动阶段" style="text;html=1;strokeColor=none;fillColor=none;align=center;verticalAlign=middle;whiteSpace=wrap;rounded=0;fontStyle=1;" vertex="1" parent="WIyWlLk6GJQsqaUBKTNV-1">
          <mxGeometry x="1050" y="510" width="60" height="20" as="geometry" />
        </mxCell>
        <mxCell id="CSW-Kpyo8-qw9y4_yese-186" value="挂载阶段" style="text;html=1;strokeColor=none;fillColor=none;align=center;verticalAlign=middle;whiteSpace=wrap;rounded=0;fontStyle=1;" vertex="1" parent="WIyWlLk6GJQsqaUBKTNV-1">
          <mxGeometry x="1045" y="670" width="60" height="20" as="geometry" />
        </mxCell>
        <mxCell id="CSW-Kpyo8-qw9y4_yese-187" value="卸载阶段" style="text;html=1;strokeColor=none;fillColor=none;align=center;verticalAlign=middle;whiteSpace=wrap;rounded=0;fontStyle=1;fontColor=#FF0000;" vertex="1" parent="WIyWlLk6GJQsqaUBKTNV-1">
          <mxGeometry x="1340" y="820" width="60" height="20" as="geometry" />
        </mxCell>
        <mxCell id="CSW-Kpyo8-qw9y4_yese-188" value="LOAD_ERROR" style="rounded=1;whiteSpace=wrap;html=1;align=center;fillColor=#f8cecc;strokeColor=#b85450;gradientColor=#FF0000;" vertex="1" parent="WIyWlLk6GJQsqaUBKTNV-1">
          <mxGeometry x="1180" y="375" width="180" height="40" as="geometry" />
        </mxCell>
        <mxCell id="CSW-Kpyo8-qw9y4_yese-189" value="加载报错" style="text;html=1;strokeColor=none;fillColor=none;align=center;verticalAlign=middle;whiteSpace=wrap;rounded=0;" vertex="1" parent="WIyWlLk6GJQsqaUBKTNV-1">
          <mxGeometry x="1223" y="350" width="54" height="20" as="geometry" />
        </mxCell>
        <mxCell id="CSW-Kpyo8-qw9y4_yese-193" value="&lt;span&gt;加载应用，执行app.loadApp&lt;/span&gt;" style="rounded=0;whiteSpace=wrap;html=1;align=center;fillColor=#cce5ff;strokeColor=#36393d;" vertex="1" parent="WIyWlLk6GJQsqaUBKTNV-1">
          <mxGeometry x="20" y="615" width="180" height="20" as="geometry" />
        </mxCell>
        <mxCell id="CSW-Kpyo8-qw9y4_yese-194" value="启动应用，执行app.bootstrap" style="rounded=0;whiteSpace=wrap;html=1;align=center;fillColor=#e1d5e7;strokeColor=#9673a6;" vertex="1" parent="WIyWlLk6GJQsqaUBKTNV-1">
          <mxGeometry x="20" y="647.5" width="180" height="20" as="geometry" />
        </mxCell>
        <mxCell id="CSW-Kpyo8-qw9y4_yese-195" value="挂载应用，执行app.mount" style="rounded=0;whiteSpace=wrap;html=1;align=center;fillColor=#fff2cc;strokeColor=#d6b656;" vertex="1" parent="WIyWlLk6GJQsqaUBKTNV-1">
          <mxGeometry x="20" y="680" width="180" height="20" as="geometry" />
        </mxCell>
        <mxCell id="CSW-Kpyo8-qw9y4_yese-199" value="启动应用，执行app.bootstrap" style="rounded=0;whiteSpace=wrap;html=1;align=center;fillColor=#e1d5e7;strokeColor=#9673a6;" vertex="1" parent="WIyWlLk6GJQsqaUBKTNV-1">
          <mxGeometry x="270" y="630" width="180" height="20" as="geometry" />
        </mxCell>
        <mxCell id="CSW-Kpyo8-qw9y4_yese-201" value="挂载应用，执行app.mount" style="rounded=0;whiteSpace=wrap;html=1;align=center;fillColor=#fff2cc;strokeColor=#d6b656;" vertex="1" parent="WIyWlLk6GJQsqaUBKTNV-1">
          <mxGeometry x="270" y="665" width="180" height="20" as="geometry" />
        </mxCell>
        <mxCell id="CSW-Kpyo8-qw9y4_yese-207" value="生命周期" style="text;html=1;strokeColor=none;fillColor=none;align=center;verticalAlign=middle;whiteSpace=wrap;rounded=0;dashed=1;labelBackgroundColor=none;fontSize=24;fontColor=none;fontStyle=1" vertex="1" parent="WIyWlLk6GJQsqaUBKTNV-1">
          <mxGeometry x="590" y="280" width="140" height="20" as="geometry" />
        </mxCell>
      </root>
    </mxGraphModel>
  </diagram>
</mxfile>
